<svg xmlns="http://www.w3.org/2000/svg" viewBox="0 0 64 64" role="img" aria-labelledby="mTitle">
  <title id="mTitle">Corrie's Pet Grooming</title>
  <rect width="64" height="64" rx="6" fill="#f3ebe0"/>
  <rect x="4" y="4" width="56" height="56" rx="4" fill="none" stroke="#9c3f2c" stroke-width="1.6"/>
  <ellipse cx="32" cy="38" rx="18" ry="8.5" fill="#c9a15a" opacity="0.35"/>
  <ellipse cx="32" cy="36" rx="16" ry="7.2" fill="none" stroke="#9c3f2c" stroke-width="1.8"/>
  <ellipse cx="32" cy="35.2" rx="12" ry="4.6" fill="#fff8ee"/>
  <path d="M24 28c0-5 2.4-9 5.4-9 1.4 0 2.4 1 2.6 2.4C32.4 20 33.6 19 35 19c3 0 5.2 4 5.2 9 0 4.6-3.4 7.4-8.2 7.4S24 32.6 24 28z" fill="#1f1b16"/>
  <ellipse cx="27.6" cy="21.4" rx="1.7" ry="2.3" fill="#1f1b16"/>
  <ellipse cx="36.4" cy="21.4" rx="1.7" ry="2.3" fill="#1f1b16"/>
  <circle cx="10" cy="10" r="1.6" fill="none" stroke="#5f7358" stroke-width="1.3"/>
  <circle cx="54" cy="10" r="1.6" fill="none" stroke="#5f7358" stroke-width="1.3"/>
</svg>
